<svg id="Capa_1" enable-background="new 0 0 497 497" height="512" viewBox="0 0 497 497" width="512" xmlns="http://www.w3.org/2000/svg"><g><path d="m366.294 0h-235.588c-51.64 0-93.503 41.863-93.503 93.503v309.995c0 51.64 41.862 93.503 93.503 93.503h235.587c51.64 0 93.503-41.862 93.503-93.503v-309.995c0-51.64-41.862-93.503-93.502-93.503z" fill="#5b596e"/><path d="m110.544 272.51c0-193.825 58.396-256.819 172.257-272.51h-152.095c-51.64 0-93.502 41.863-93.502 93.503v309.995c0 51.64 41.862 93.502 93.502 93.502h61.553c-54.151-46.085-81.715-121.839-81.715-224.49z" fill="#4f4d5f"/><path d="m130.707 167c-23.987 0-43.502-19.516-43.502-43.503v-29.995c-.001-23.987 19.514-43.502 43.502-43.502h235.587c23.987 0 43.502 19.515 43.502 43.502v29.995c0 23.987-19.515 43.503-43.502 43.503z" fill="#9ee4d4"/><g><g><path d="m168.502 121.387c-4.143 0-7.5-3.358-7.5-7.5v-15.373c0-4.142 3.357-7.5 7.5-7.5s7.5 3.358 7.5 7.5v15.373c0 4.142-3.357 7.5-7.5 7.5z" fill="#43404f"/></g><g><path d="m328.498 121.387c-4.143 0-7.5-3.358-7.5-7.5v-15.373c0-4.142 3.357-7.5 7.5-7.5s7.5 3.358 7.5 7.5v15.373c0 4.142-3.357 7.5-7.5 7.5z" fill="#43404f"/></g><g><path d="m248.5 130.538c-10.251 0-19.999-4.44-26.745-12.182-2.722-3.123-2.396-7.86.728-10.582 3.121-2.721 7.86-2.396 10.581.727 3.896 4.472 9.522 7.036 15.437 7.036s11.54-2.564 15.437-7.036c2.72-3.124 7.458-3.448 10.581-.727s3.449 7.458.728 10.582c-6.748 7.742-16.496 12.182-26.747 12.182z" fill="#43404f"/></g></g><g fill="#d0cee7"><ellipse cx="248.5" cy="240.5" rx="56.351" ry="43.135"/><path d="m260.274 314.725h-23.549c-14.839 0-26.868 12.029-26.868 26.868 0 14.839 12.029 26.868 26.868 26.868h23.549c14.839 0 26.868-12.029 26.868-26.868 0-14.839-12.029-26.868-26.868-26.868z"/><path d="m141.634 314.725h-23.549c-14.839 0-26.868 12.029-26.868 26.868 0 14.839 12.029 26.868 26.868 26.868h23.549c14.839 0 26.868-12.029 26.868-26.868 0-14.839-12.029-26.868-26.868-26.868z"/><path d="m355.366 314.725h23.549c14.839 0 26.868 12.029 26.868 26.868 0 14.839-12.029 26.868-26.868 26.868h-23.549c-14.839 0-26.868-12.029-26.868-26.868 0-14.839 12.029-26.868 26.868-26.868z"/><path d="m260.274 399.55h-23.549c-14.839 0-26.868 12.029-26.868 26.868 0 14.839 12.029 26.868 26.868 26.868h23.549c14.839 0 26.868-12.029 26.868-26.868 0-14.839-12.029-26.868-26.868-26.868z"/><path d="m141.634 399.55h-23.549c-14.839 0-26.868 12.029-26.868 26.868 0 14.839 12.029 26.868 26.868 26.868h23.549c14.839 0 26.868-12.029 26.868-26.868 0-14.839-12.029-26.868-26.868-26.868z"/><path d="m355.366 399.55h23.549c14.839 0 26.868 12.029 26.868 26.868 0 14.839-12.029 26.868-26.868 26.868h-23.549c-14.839 0-26.868-12.029-26.868-26.868 0-14.839 12.029-26.868 26.868-26.868z"/><path d="m149.949 261.237c-1.843-6.722-2.799-13.678-2.799-20.737 0-5.159.514-10.261 1.51-15.258.876-4.391-2.456-8.594-6.933-8.61-.031 0-.062 0-.092 0h-23.549c-14.839 0-26.868 12.029-26.868 26.868 0 14.839 12.029 26.868 26.868 26.868h23.549c.628 0 1.251-.022 1.869-.064 4.506-.311 7.64-4.709 6.445-9.067z"/><path d="m347.051 261.237c1.843-6.722 2.799-13.678 2.799-20.737 0-5.159-.514-10.261-1.51-15.258-.876-4.391 2.456-8.594 6.933-8.61h.092 23.549c14.839 0 26.868 12.029 26.868 26.868 0 14.839-12.029 26.868-26.868 26.868h-23.549c-.628 0-1.251-.022-1.869-.064-4.506-.311-7.64-4.709-6.445-9.067z"/></g><path d="m128.855 399.55h-10.77c-14.839 0-26.868 12.029-26.868 26.868 0 14.839 12.029 26.868 26.868 26.868h23.549c3.962 0 7.72-.865 11.105-2.404-9.586-15.382-17.552-32.507-23.884-51.332z" fill="#beb9dd"/><path d="m112.284 315.36c-12.049 2.653-21.067 13.387-21.067 26.233 0 14.839 12.029 26.868 26.868 26.868h2.146c-3.719-16.617-6.371-34.322-7.947-53.101z" fill="#beb9dd"/><path d="m112.362 217.249c-12.088 2.624-21.145 13.377-21.145 26.251 0 12.223 8.165 22.533 19.336 25.79.063-18.53.666-35.855 1.809-52.041z" fill="#beb9dd"/><path d="m169.861 50h-39.155c-23.987 0-43.502 19.515-43.502 43.502v29.995c0 19.763 13.252 36.479 31.333 41.758 9.215-52.529 26.373-89.529 51.324-115.255z" fill="#7cdac2"/></g></svg>